<svg width="120" height="32" viewBox="0 0 120 32" fill="none" xmlns="http://www.w3.org/2000/svg">
    <path fill-rule="evenodd" clip-rule="evenodd" d="M36.57 8.64a2.64 2.64 0 1 1-5.281.001 2.64 2.64 0 0 1 5.282 0zm65.546 11.96c.447.5.687 1.151.672 1.822v.243a3.082 3.082 0 0 1-.518 1.79 3.237 3.237 0 0 1-1.417 1.14 5.07 5.07 0 0 1-2.032.39H94.24V13.678h4.355a4.414 4.414 0 0 1 1.918.397c.528.24.977.624 1.296 1.108.311.488.472 1.057.462 1.636v.161a2.505 2.505 0 0 1-.51 1.57 3.026 3.026 0 0 1-1.368.989c.664.182 1.262.55 1.724 1.06zm-6.371-5.69v4.13h2.639a2.512 2.512 0 0 0 1.7-.563 1.776 1.776 0 0 0 .648-1.401v-.178a1.82 1.82 0 0 0-.648-1.425 2.49 2.49 0 0 0-1.7-.564h-2.64zm5.488 7.51a1.88 1.88 0 0 0-.751-1.58 2.993 2.993 0 0 0-1.87-.574h-2.865v4.485h2.865a3.05 3.05 0 0 0 1.87-.564 1.836 1.836 0 0 0 .751-1.562v-.205zm5.28 3.564h-1.503V13.679h1.503v12.305zm2.266 0h8.306l.001-1.231h-6.428l6.525-10.087v-.987h-8.08v1.23h6.234l-6.558 10.087v.988zm-22.026-9.532c0-1.697-1.095-2.763-3.012-2.763H72.58c-3.49 0-4.053 1.536-4.053 3.833l-.001 1.03c-.002.93-.004 2.096.001 3.376.01 2.73 1.203 4.057 3.874 4.057h10.36a2.723 2.723 0 0 0 2.117-.69l2.028-1.772H75.172c-1.158 0-1.767-.375-1.767-1.292V21.06s8.689-.038 10.34-.038c2.553 0 3.012-1.266 3.012-2.021l-.004-2.549zm-5.24 2.764h-8.112V17.13a.92.92 0 0 1 .963-1.033h7.11c.691 0 .873.351.873.867v1.424a.834.834 0 0 1-.833.827zM35.01 13.689h-3.62v12.298h3.623a1.386 1.386 0 0 0 1.468-1.468v-9.36a1.387 1.387 0 0 0-1.471-1.47zm9.386.021h9.175c3.389 0 3.974 1.172 3.975 3.747l-.003 3.855v.009l-.002 1.915a2.756 2.756 0 0 1-2.756 2.748H40.777a1.388 1.388 0 0 1-1.468-1.468V8.641h3.618a1.388 1.388 0 0 1 1.468 1.468v3.601zm8.722 8.799c.06-.183.08-.377.06-.568l.001-4.414c0-.841-.282-1.379-1.596-1.379h-7.188v7.283h7.404a1.342 1.342 0 0 0 1.32-.922zM64.227 8.64h-3.62v15.875a1.388 1.388 0 0 0 1.469 1.468h3.62V10.11a1.39 1.39 0 0 0-1.468-1.468zM25.44 14.339c.195-.451.379-.65.77-.65l3.508.002-5.053 11.395c-.315.721-.655.9-1.243.9h-3.997l-3.642-8.026s-3.297 7.218-3.345 7.298a1.19 1.19 0 0 1-1.22.728h-3.54L2 13.688h4.963c.407 0 .598.2.8.65l3.316 7.378 3.672-8.027h3.371c.408 0 .6.2.801.65l3.32 7.378 3.196-7.378z" fill="#05141F"/>
</svg>
